<svg width="107" height="343" viewBox="0 0 107 343" fill="none" xmlns="http://www.w3.org/2000/svg">
<path d="M64.9134 40.2813C74.8701 40.2813 82.9416 32.2098 82.9416 22.2531C82.9416 12.2965 74.8701 4.22499 64.9134 4.22499C54.9567 4.22499 46.8853 12.2965 46.8853 22.2531C46.8853 32.2098 54.9567 40.2813 64.9134 40.2813Z" fill="#9E616A"/>
<path d="M95.6311 193.725C95.0333 193.075 94.5854 192.301 94.3189 191.459C94.0524 190.617 93.9739 189.726 94.0888 188.85C94.2037 187.975 94.5092 187.134 94.9839 186.389C95.4586 185.644 96.0909 185.012 96.8362 184.538L91.8838 163.643L102.365 167.472L105.461 186.728C106.175 188.033 106.385 189.554 106.052 191.004C105.719 192.453 104.866 193.73 103.655 194.593C102.443 195.455 100.957 195.844 99.478 195.684C97.9993 195.524 96.6305 194.827 95.6311 193.725Z" fill="#9E616A"/>
<path d="M70.4253 106.162L74.6318 116.979C74.6318 116.979 72.8291 127.796 75.8337 130.2C78.8384 132.603 77.6365 132.603 77.6365 134.406C77.7401 135.699 78.1146 136.956 78.7358 138.095C79.357 139.234 80.211 140.229 81.2422 141.017C83.6459 142.819 94.4628 179.477 94.4628 179.477H105.28C104.93 176.683 104.93 173.857 105.28 171.063C105.881 166.857 103.477 156.04 102.275 154.237C101.073 152.434 102.275 150.031 102.275 146.425C102.275 142.819 99.8713 141.017 99.8713 135.007C99.8713 128.998 92.66 82.1245 93.2609 76.7161C93.8619 71.3076 87.2515 66.5001 87.2515 66.5001H81.2422L70.4253 106.162Z" fill="#E4E4E4"/>
<path d="M98.0885 334.707H90.0945L86.2915 303.871L98.0898 303.872L98.0885 334.707Z" fill="#9E616A"/>
<path d="M100.127 342.456L74.3501 342.455V342.129C74.3503 339.468 75.4074 336.916 77.289 335.035C79.1705 333.153 81.7224 332.096 84.3833 332.096H84.3839L89.0925 328.524L97.8776 332.097L100.128 332.097L100.127 342.456Z" fill="#2F2E41"/>
<path d="M24.9555 334.478L17.4482 331.731L24.4694 301.466L35.5503 305.52L24.9555 334.478Z" fill="#9E616A"/>
<path d="M24.208 342.456L0 333.6L0.111989 333.293C1.0263 330.795 2.89578 328.761 5.30921 327.641C7.72264 326.52 10.4824 326.404 12.9814 327.318L12.982 327.318L18.6311 325.581L25.6542 331.954L27.7674 332.727L24.208 342.456Z" fill="#2F2E41"/>
<path d="M40.8134 168.582C40.8134 168.582 33.6021 178.197 33.6021 183.605C33.6021 189.014 31.1984 237.089 31.1984 237.089C31.1984 237.089 12.9526 308.678 16.5582 312.284C20.1638 315.89 32.7835 319.495 34.5863 317.692C36.3892 315.89 52.2312 241.896 52.2312 241.896L67.2547 201.633L81.0763 259.323L82.2782 320.619C82.2782 320.619 97.3017 324.225 100.306 321.821C103.311 319.417 103.912 261.126 100.306 240.694C96.7007 220.262 100.907 173.389 100.907 173.389L40.8134 168.582Z" fill="#2F2E41"/>
<path d="M42.0152 66.4221C42.0152 66.4221 47.206 58.6879 57.422 48.4719C62.8304 46.6691 72.2014 47.7198 75.4501 48.4719C90.4736 68.3029 91.4191 66.9851 95.3298 78.0653C96.3438 80.9385 96.8509 83.6991 96.4002 85.9526C94.5974 94.9667 100.306 167.981 100.907 170.385C101.508 172.788 105.715 175.793 101.508 175.793C97.3015 175.793 33.6021 173.389 34.8039 171.586C36.0058 169.784 42.0152 66.4221 42.0152 66.4221Z" fill="#E4E4E4"/>
<path opacity="0.1" d="M39.2637 170.793L57.3396 131.022L48.3016 173.319L39.2637 170.793Z" fill="black"/>
<path d="M59.4591 38.955C61.147 37.6989 62.7011 36.2725 64.0971 34.6984C65.4984 33.1101 66.3758 31.1282 66.6095 29.023C66.7119 27.9733 66.5471 26.9148 66.1304 25.946C65.7137 24.9772 65.0586 24.1296 64.2261 23.4821C62.509 22.269 59.8906 22.3396 58.4654 23.8851C59.154 21.6593 59.7828 19.0339 58.3882 17.1675C57.1189 15.4688 54.7512 15.1802 52.706 14.6201C48.7617 13.522 45.3681 10.9938 43.187 7.52878L46.6602 8.24752L46.2728 5.77156L49.151 6.77231L49.1762 3.32381L52.1467 4.9858C55.7832 1.65185 60.5758 -0.133801 65.5073 0.00782439C67.9948 0.0492575 70.4315 0.718219 72.5915 1.95265C74.756 3.20466 76.3953 5.1966 77.2074 7.56161C78.7363 5.97455 81.4623 6.09728 83.2838 7.33762C85.1053 8.57795 86.1752 10.6529 86.9099 12.7305C88.3649 16.7148 88.7034 21.021 87.8891 25.1837C87.051 29.3562 84.8028 33.1133 81.5219 35.8241C78.5088 38.1238 74.9214 39.5508 71.1519 39.9491C67.3979 40.3383 63.6072 40.1762 59.9001 39.468" fill="#2F2E41"/>
<path d="M33.6361 193.647C34.2339 192.997 34.6818 192.223 34.9483 191.381C35.2148 190.539 35.2934 189.648 35.1785 188.773C35.0636 187.897 34.758 187.056 34.2833 186.311C33.8086 185.566 33.1764 184.934 32.431 184.46L37.3835 163.565L26.9018 167.394L23.8059 186.65C23.0921 187.955 22.8818 189.476 23.2148 190.926C23.5478 192.375 24.401 193.652 25.6127 194.515C26.8244 195.377 28.3105 195.766 29.7892 195.606C31.268 195.446 32.6367 194.749 33.6361 193.648V193.647Z" fill="#9E616A"/>
<path d="M48.025 66.4221H42.0156C42.0156 66.4221 35.4053 71.2296 36.0062 76.6381C36.6072 82.0465 29.3959 128.92 29.3959 134.929C29.3959 140.939 26.9921 142.741 26.9921 146.347C26.9921 149.953 28.194 152.356 26.9921 154.159C25.7902 155.962 23.3865 166.779 23.9874 170.985C24.3369 173.779 24.3369 176.605 23.9874 179.399H34.8043C34.8043 179.399 45.6212 142.741 48.025 140.939C49.0562 140.151 49.9101 139.156 50.5313 138.017C51.1525 136.878 51.5271 135.621 51.6306 134.328C51.6306 132.525 50.4287 132.525 53.4334 130.122C56.4381 127.718 54.6353 116.901 54.6353 116.901L58.8419 106.084L48.025 66.4221Z" fill="#E4E4E4"/>
</svg>
